<?xml version="1.0" encoding="UTF-8" standalone="no"?>
<!DOCTYPE svg PUBLIC "-//W3C//DTD SVG 1.1//EN" "http://www.w3.org/Graphics/SVG/1.1/DTD/svg11.dtd">
<svg width="100%" height="100%" viewBox="0 0 947 986" version="1.1" xmlns="http://www.w3.org/2000/svg" xmlns:xlink="http://www.w3.org/1999/xlink" xml:space="preserve" xmlns:serif="http://www.serif.com/" style="fill-rule:evenodd;clip-rule:evenodd;stroke-linejoin:round;stroke-miterlimit:2;">
    <g transform="matrix(1,0,0,1,-767.783,-573.929)">
        <g transform="matrix(4.16667,0,0,4.16667,616,442)">
            <g transform="matrix(1,0,0,1,0,-69.649)">
                <clipPath id="_clip1">
                    <path d="M103.049,164.117C86.377,183.232 89.538,199.015 89.538,199.015C89.538,199.015 94.137,188.154 105.206,176.715C110.448,171.297 114.368,169.485 117.041,169.478C120.014,169.469 121.448,171.693 121.448,173.675L121.448,212.482C121.448,216.31 118.981,217.146 116.707,217.104C114.766,217.068 112.968,216.393 112.968,216.393C124.323,232.9 151.49,235.218 151.49,235.218L163.42,222.475L163.699,222.714L174.631,232.03C194.611,220.157 204.242,198.146 204.242,198.146C195.328,207.585 189.644,209.786 186.272,209.768C183.281,209.753 182.105,207.994 182.105,207.994C181.944,207.176 181.666,195.369 181.566,183.556C181.464,171.317 181.554,159.07 182.167,159.033C185.617,152.558 196.624,139.5 196.624,139.5C176.069,143.553 164.858,157.022 164.858,157.022C161.55,154.414 154.796,154.849 154.796,154.849C157.957,156.588 161.12,161.656 161.12,165.855L161.12,207.125C161.12,207.125 154.22,213.206 148.902,213.206C145.758,213.206 143.819,211.485 142.76,210.077C142.027,209.103 141.714,208.282 141.714,208.282L141.714,157.31C141.061,157.782 140.135,158.176 139.182,158.171C138.053,158.166 136.884,157.599 136.09,155.933C135.49,154.68 135.104,152.802 135.104,150.071C135.104,140.659 145.741,134.431 145.741,134.431C132.229,138.052 119.723,145.003 103.049,164.117Z" clip-rule="nonzero"/>
                </clipPath>
                <g clip-path="url(#_clip1)">
                    <rect x="88.126" y="133.258" width="117.29" height="103.133" style="fill:white;"/>
                </g>
            </g>
        </g>
        <g transform="matrix(4.16667,0,0,4.16667,616,442)">
            <g transform="matrix(1,0,0,1,0,-69.362)">
                <path d="M66.934,184.68C66.934,230.882 104.072,268.336 149.885,268.336C195.698,268.336 232.836,230.882 232.836,184.68C232.836,138.479 195.698,101.025 149.885,101.025C104.072,101.025 66.934,138.479 66.934,184.68ZM93.812,241.231C78.833,226.125 70.584,206.042 70.584,184.68C70.584,163.319 78.833,143.235 93.812,128.131C108.788,113.025 128.704,104.706 149.885,104.706C171.067,104.706 190.982,113.025 205.959,128.131C220.937,143.235 229.186,163.319 229.186,184.68C229.186,206.042 220.937,226.125 205.959,241.231C190.982,256.335 171.067,264.654 149.885,264.654C128.704,264.654 108.788,256.335 93.812,241.231Z" style="fill:white;fill-rule:nonzero;"/>
            </g>
        </g>
        <g transform="matrix(4.16667,0,0,4.16667,616,442)">
            <g transform="matrix(1,0,0,1,90.2673,268.012)">
                <path d="M0,-16.279L0,0L17.75,0L17.75,-3.704L4.757,-3.704L4.757,-6.509L16.798,-6.509L16.798,-9.91L4.757,-9.91L4.757,-12.68L17.471,-12.68L17.471,-16.279L0,-16.279Z" style="fill:white;fill-rule:nonzero;"/>
            </g>
        </g>
        <g transform="matrix(4.16667,0,0,4.16667,616,442)">
            <g transform="matrix(1,0,0,1,127.413,268.012)">
                <path d="M0,-16.279L0,-4.089L-0.093,-4.089L-9.432,-16.279L-16.729,-16.279L-16.729,0L-12.02,0L-12.02,-12.177L-11.927,-12.177L-2.471,0L4.71,0L4.71,-16.279L0,-16.279Z" style="fill:white;fill-rule:nonzero;"/>
            </g>
        </g>
        <g transform="matrix(4.16667,0,0,4.16667,616,442)">
            <g transform="matrix(1,0,0,1,0,219.872)">
                <path d="M145.983,31.802C144.49,31.802 143.197,31.838 142.103,31.907C141.008,31.976 140.079,32.114 139.314,32.319C138.548,32.523 137.926,32.81 137.448,33.177C136.969,33.544 136.597,34.025 136.328,34.62C136.061,35.215 135.879,35.94 135.784,36.794C135.688,37.649 135.64,38.659 135.64,39.826L135.64,40.302C135.64,41.461 135.686,42.464 135.778,43.311C135.869,44.158 136.048,44.879 136.311,45.474C136.576,46.069 136.947,46.552 137.425,46.922C137.903,47.294 138.525,47.584 139.29,47.793C140.055,48.001 140.985,48.142 142.079,48.216C143.174,48.289 144.475,48.326 145.983,48.326L146.705,48.326C147.983,48.326 149.103,48.291 150.063,48.221C151.024,48.153 151.848,48.034 152.536,47.868C153.226,47.702 153.794,47.478 154.241,47.195C154.689,46.913 155.046,46.558 155.309,46.129C155.573,45.699 155.757,45.189 155.86,44.598C155.964,44.006 156.015,43.321 156.015,42.54L156.015,38.922L145.225,38.922L145.225,42.064L151.458,42.064L151.458,42.517C151.458,42.803 151.439,43.052 151.401,43.265C151.363,43.477 151.284,43.663 151.166,43.822C151.047,43.98 150.879,44.111 150.662,44.215C150.443,44.32 150.152,44.401 149.79,44.458C149.426,44.517 148.979,44.559 148.448,44.586C147.917,44.613 147.284,44.627 146.55,44.627L146.148,44.627C145.246,44.627 144.476,44.611 143.838,44.581C143.2,44.55 142.669,44.483 142.244,44.378C141.82,44.273 141.484,44.124 141.235,43.932C140.987,43.738 140.801,43.477 140.679,43.149C140.557,42.82 140.478,42.416 140.444,41.937C140.41,41.458 140.393,40.882 140.393,40.209L140.393,39.92C140.393,39.231 140.41,38.642 140.444,38.151C140.478,37.661 140.557,37.248 140.679,36.916C140.801,36.584 140.987,36.321 141.235,36.127C141.484,35.934 141.82,35.785 142.244,35.681C142.668,35.577 143.2,35.51 143.838,35.478C144.476,35.448 145.246,35.431 146.148,35.431L146.55,35.431C147.543,35.431 148.344,35.463 148.953,35.525C149.56,35.586 150.032,35.692 150.368,35.843C150.705,35.995 150.93,36.195 151.045,36.446C151.16,36.698 151.217,37.009 151.217,37.38L151.217,37.577L155.831,37.577L155.831,36.95C155.831,36.239 155.782,35.618 155.682,35.084C155.583,34.55 155.405,34.093 155.148,33.711C154.892,33.327 154.544,33.013 154.103,32.765C153.664,32.517 153.105,32.323 152.428,32.18C151.751,32.036 150.942,31.938 150,31.883C149.059,31.829 147.961,31.802 146.705,31.802L145.983,31.802Z" style="fill:white;fill-rule:nonzero;"/>
            </g>
        </g>
        <g transform="matrix(4.16667,0,0,4.16667,616,442)">
            <g transform="matrix(1,0,0,1,184.212,268.012)">
                <path d="M0,-16.152L0,-4.058L-0.092,-4.058L-9.332,-16.152L-16.552,-16.152L-16.552,0L-11.892,0L-11.892,-12.082L-11.8,-12.082L-2.444,0L4.661,0L4.661,-16.152L0,-16.152Z" style="fill:white;fill-rule:nonzero;"/>
            </g>
        </g>
        <g transform="matrix(4.16667,0,0,4.16667,616,442)">
            <g transform="matrix(1,0,0,1,192.658,268.012)">
                <path d="M0,-16.152L0,0L17.563,0L17.563,-3.675L4.706,-3.675L4.706,-6.458L16.621,-6.458L16.621,-9.832L4.706,-9.832L4.706,-12.581L17.287,-12.581L17.287,-16.152L0,-16.152Z" style="fill:white;fill-rule:nonzero;"/>
            </g>
        </g>
        <g transform="matrix(4.16667,0,0,4.16667,616,442)">
            <g transform="matrix(1,0,0,1,0,157.307)">
                <path d="M62.993,56.948L62.993,72.604C62.993,73.557 62.959,74.385 62.892,75.087C62.824,75.789 62.686,76.381 62.477,76.864C62.267,77.349 61.968,77.744 61.576,78.05C61.185,78.356 60.666,78.591 60.018,78.755C59.371,78.918 58.576,79.031 57.632,79.093C56.687,79.154 55.561,79.185 54.252,79.185L53.545,79.185C52.236,79.185 51.109,79.157 50.165,79.103C49.221,79.049 48.425,78.936 47.778,78.765C47.13,78.595 46.611,78.36 46.22,78.06C45.829,77.761 45.529,77.366 45.32,76.875C45.111,76.385 44.972,75.791 44.906,75.097C44.837,74.402 44.805,73.571 44.805,72.604L44.805,56.948L36.428,56.948L36.428,75.322C36.428,76.739 36.529,77.978 36.732,79.041C36.933,80.104 37.282,81.02 37.774,81.79C38.266,82.56 38.927,83.2 39.757,83.711C40.585,84.222 41.631,84.628 42.892,84.927C44.153,85.227 45.654,85.439 47.394,85.561C49.134,85.683 51.157,85.745 53.464,85.745L54.334,85.745C56.667,85.745 58.71,85.683 60.464,85.561C62.217,85.439 63.725,85.227 64.985,84.927C66.246,84.628 67.288,84.222 68.111,83.711C68.934,83.2 69.588,82.56 70.074,81.79C70.559,81.02 70.897,80.101 71.086,79.031C71.274,77.961 71.368,76.725 71.368,75.322L71.368,56.948L62.993,56.948Z" style="fill:white;fill-rule:nonzero;"/>
            </g>
        </g>
        <g transform="matrix(4.16667,0,0,4.16667,616,442)">
            <g transform="matrix(1,0,0,1,106.249,242.725)">
                <path d="M0,-28.47L0,-7.154L-0.162,-7.154L-16.448,-28.47L-29.174,-28.47L-29.174,0L-20.96,0L-20.96,-21.296L-20.798,-21.296L-4.309,0L8.214,0L8.214,-28.47L0,-28.47Z" style="fill:white;fill-rule:nonzero;"/>
            </g>
        </g>
        <g transform="matrix(4.16667,0,0,4.16667,616,442)">
            <g transform="matrix(1,0,0,1,0,156.98)">
                <path d="M120.249,57.275L120.249,85.745L128.544,85.745L128.544,77.836L136.921,77.836C138.215,77.836 139.331,77.859 140.269,77.907C141.205,77.955 141.995,78.047 142.636,78.183C143.276,78.319 143.792,78.513 144.184,78.765C144.574,79.017 144.878,79.351 145.093,79.767C145.309,80.182 145.451,80.69 145.518,81.289C145.586,81.889 145.62,82.604 145.62,83.435L145.62,85.745L153.895,85.745L153.895,81.392C153.895,80.138 153.827,79.11 153.692,78.305C153.558,77.502 153.308,76.851 152.944,76.353C152.58,75.857 152.077,75.482 151.437,75.229C150.796,74.977 149.976,74.77 148.979,74.607L148.979,74.443C149.882,74.238 150.644,73.939 151.265,73.544C151.885,73.148 152.391,72.648 152.782,72.041C153.173,71.435 153.456,70.713 153.632,69.875C153.806,69.037 153.895,68.06 153.895,66.942L153.895,65.941C153.895,64.306 153.729,62.933 153.399,61.823C153.068,60.712 152.472,59.819 151.609,59.145C150.745,58.471 149.565,57.991 148.068,57.704C146.57,57.418 144.662,57.275 142.342,57.275L120.249,57.275ZM128.544,63.57L138.983,63.57C140.413,63.57 141.557,63.615 142.413,63.703C143.269,63.792 143.923,63.969 144.375,64.235C144.827,64.5 145.12,64.882 145.255,65.379C145.391,65.876 145.458,66.527 145.458,67.331L145.458,67.821C145.458,68.639 145.391,69.297 145.255,69.793C145.12,70.291 144.831,70.679 144.385,70.958C143.941,71.238 143.29,71.421 142.433,71.51C141.576,71.599 140.427,71.643 138.983,71.643L128.544,71.643L128.544,63.57Z" style="fill:white;fill-rule:nonzero;"/>
            </g>
        </g>
        <g transform="matrix(4.16667,0,0,4.16667,616,442)">
            <g transform="matrix(1,0,0,1,159.357,242.725)">
                <path d="M0,-28.47L0,0L30.956,0L30.956,-6.479L8.295,-6.479L8.295,-11.384L29.296,-11.384L29.296,-17.331L8.295,-17.331L8.295,-22.175L30.47,-22.175L30.47,-28.47L0,-28.47Z" style="fill:white;fill-rule:nonzero;"/>
            </g>
        </g>
        <g transform="matrix(4.16667,0,0,4.16667,616,442)">
            <g transform="matrix(1,0,0,1,207.428,242.725)">
                <path d="M0,-28.47L-15.295,0L-6.332,0L-3.763,-5.11L14,-5.11L16.61,0L25.654,0L10.278,-28.47L0,-28.47ZM4.977,-22.481L5.18,-22.481L10.985,-11.057L-0.789,-11.057L4.977,-22.481Z" style="fill:white;fill-rule:nonzero;"/>
            </g>
        </g>
        <g transform="matrix(4.16667,0,0,4.16667,616,442)">
            <g transform="matrix(1,0,0,1,236.137,242.725)">
                <path d="M0,-28.47L0,0L27.435,0L27.435,-6.623L8.376,-6.623L8.376,-28.47L0,-28.47Z" style="fill:white;fill-rule:nonzero;"/>
            </g>
        </g>
        <g transform="matrix(4.16667,0,0,4.16667,616,442)">
            <g transform="matrix(1,0,0,1,0,219.872)">
                <rect x="159.316" y="31.988" width="4.775" height="16.152" style="fill:white;"/>
            </g>
        </g>
    </g>
</svg>
